<svg version="1" xmlns="http://www.w3.org/2000/svg" width="400" height="400" viewBox="0 0 300.000000 300.000000"><path d="M3 67v7h19v55h16V74h19V60H3v7zM61 60.4c0 .3 4.7 10.6 10.5 23L82 106v23h16v-23l10.5-22.6c5.8-12.4 10.5-22.7 10.5-23 0-.2-3.7-.4-8.3-.4h-8.2l-5.9 15c-3.3 8.2-6.2 15-6.5 15-.4 0-1.5-2.4-2.5-5.3-1-2.8-3.6-9.6-5.8-15l-4-9.7h-8.4c-4.6 0-8.4.2-8.4.4zM130 94.5V129h45v-14h-29V60h-16v34.5zM189 94.5V129h45v-14h-29v-14h24V87h-24V74h28V60h-44v34.5zM246 94.5V129h16v-24h3.4c3.4 0 3.6.2 9.8 12l6.3 12h8.8c4.9 0 8.7-.3 8.5-.8-.1-.4-3.3-6.4-7-13.4l-6.8-12.6 4.4-4.3c7.1-7.1 8.6-18.8 3.6-27.6-4.6-8.2-10.9-10.2-32.2-10.3H246v34.5zM274.2 74c2.1.6 4.2 1.9 4.8 3 1.1 2.1 1.3 7 .4 9.5-1 2.6-5.9 4.5-11.9 4.5H262V73h4.3c2.3 0 5.9.5 7.9 1zM207.5 185.4c-15.6 4.9-23.5 18.4-22.3 38.1 1 14.5 7.4 24.8 18.7 29.8 6.1 2.7 18 2.8 23.1.3 5.4-2.8 10-6.5 10-8.2 0-.8-1.9-3.5-4.2-6-4.1-4.4-4.1-4.4-6.2-2.6-5.2 4.7-11.7 5.5-17.2 2.2-5.2-3.3-7.9-9.9-7.8-19.5 0-12.2 4.6-19.3 13.4-21 2.7-.5 4.6 0 8.4 2l4.9 2.6 3.8-4.3c2.1-2.4 3.8-4.8 3.9-5.5 0-1.7-6.2-6.3-10.7-7.9-4.7-1.6-12.6-1.7-17.8 0zM6 219.5V254h13.3l-.5-22.3c-.4-14.8-.3-21 .3-18.7.6 1.9 2.3 7.9 4 13.2l3 9.8h7.6l3.1-10.3c1.7-5.6 3.5-11.8 4-13.7.6-2.3.7 4.6.4 19.2l-.5 22.8H54v-69H38.2l-3.9 15.7c-2.2 8.7-4.3 15.1-4.6 14.3-.3-.8-2.2-7.9-4.3-15.8L21.7 185H6v34.5zm11.7-11.3c-.3.8-.6.5-.6-.6-.1-1.1.2-1.7.5-1.3.3.3.4 1.2.1 1.9zM66 209.8c0 28.2.8 32.7 6.6 39.2 4.3 4.8 8.8 6.4 18 6.4 10.3.1 15.9-3 19.9-10.9l3-5.9.3-26.8.3-26.8h-15l-.3 25.4c-.3 25.4-.3 25.5-2.7 28-3 3.2-7.8 3.4-11.2.7-2.4-1.9-2.4-2-2.7-28l-.3-26.1H66v24.8zM123 192v7h19v55h16v-55h19v-14h-54v7zM246 219.5V254h16v-28h16v28h16v-69h-16v27h-16v-27h-16v34.5z"/></svg>